<svg xmlns="http://www.w3.org/2000/svg" viewBox="0 0 32 32">
  <!-- Outer Dark Blue (Left crescent effect) -->
  <path d="M 16 2 C 16 2 6 14 6 22 C 6 27.5 10.5 32 16 32 C 21.5 32 26 27.5 26 22 C 26 14 16 2 16 2 Z" fill="#004ae0" />
  
  <!-- Middle Bright Cyan (Right crescent effect) -->
  <path d="M 16 2 C 16 2 6 14 6 22 C 6 27.5 10.5 32 16 32 C 21.5 32 26 27.5 26 22 C 26 14 16 2 16 2 Z" fill="#00d5ff" transform="matrix(0.85, 0, 0, 0.85, 3.5, 4.5)" />
  
  <!-- Inner White Core -->
  <path d="M 16 2 C 16 2 6 14 6 22 C 6 27.5 10.5 32 16 32 C 21.5 32 26 27.5 26 22 C 26 14 16 2 16 2 Z" fill="#ffffff" transform="matrix(0.65, 0, 0, 0.65, 5.6, 9.5)" />
</svg>
